<svg width="25" height="21" viewBox="0 0 25 21" fill="none" xmlns="http://www.w3.org/2000/svg">
<path d="M23.4539 1.33618C22.5005 2.00869 21.4449 2.52304 20.3277 2.85945C19.7281 2.17001 18.9312 1.68135 18.0449 1.45956C17.1585 1.23778 16.2254 1.29357 15.3717 1.61938C14.5181 1.9452 13.7851 2.52533 13.2719 3.2813C12.7587 4.03727 12.4901 4.93261 12.5023 5.84624V6.84183C10.7527 6.8872 9.01902 6.49916 7.45567 5.71227C5.89232 4.92539 4.54784 3.76408 3.54197 2.33178C3.54197 2.33178 -0.440412 11.2921 8.51996 15.2745C6.46955 16.6663 4.02699 17.3642 1.55078 17.2657C10.5112 22.2437 21.4627 17.2657 21.4627 5.81637C21.4618 5.53905 21.4351 5.26241 21.3831 4.99002C22.3992 3.98795 23.1162 2.72276 23.4539 1.33618V1.33618Z" stroke="#FF4A6C" stroke-width="1.99119" stroke-linecap="round" stroke-linejoin="round"/>
</svg>
